PathFileType	4	(X/Y/Z)	k10_0-1010.trc
DataRate	CameraRate	NumFrames	NumMarkers	Units	OrigDataRate	OrigDataStartFrame	OrigNumFrames
120	120	6	27	m	120	378	1010
Frame#	Time	RHip			RKnee			RAnkle			RBigToe			RSmallToe			RHeel			LHip			LKnee			LAnkle			LBigToe			LSmallToe			LHeel			Nose			REye			LEye			RShoulder			RElbow			RWrist			RThumb			RIndex			RPinky			LShoulder			LElbow			LWrist			LThumb			LIndex			LPinky			
		X1	Y1	Z1	X2	Y2	Z2	X3	Y3	Z3	X4	Y4	Z4	X5	Y5	Z5	X6	Y6	Z6	X7	Y7	Z7	X8	Y8	Z8	X9	Y9	Z9	X10	Y10	Z10	X11	Y11	Z11	X12	Y12	Z12	X13	Y13	Z13	X14	Y14	Z14	X15	Y15	Z15	X16	Y16	Z16	X17	Y17	Z17	X18	Y18	Z18	X19	Y19	Z19	X20	Y20	Z20	X21	Y21	Z21	X22	Y22	Z22	X23	Y23	Z23	X24	Y24	Z24	X25	Y25	Z25	X26	Y26	Z26	X27	Y27	Z27	
378	3.15	0.03415755547600458	0.19135751640777662	0.9187697244146825	-0.0006584308334393501	0.21752246613515375	0.484749146201064	-0.03741943037160113	0.25868516279854875	0.08634149145387313	-0.052213471594294014	0.05221904299348985	0.015032751259095641	-0.08736999066752335	0.09955872308836664	0.02018747399457129	-0.03643751529059291	0.2978306371878242	0.020188991685388638	0.2582155818325239	0.19184727682870797	0.9165989785199656	0.2746214726311689	0.21204398066788036	0.48348422218574405	0.3012277292982988	0.2765745473742415	0.07965045100883099	0.325129169718152	0.06312722036381185	0.012153909790811487	0.3472281836372941	0.11303437932594806	0.01659429774060548	0.2963491206704915	0.31875218679198947	0.015747336983224586	0.14792648530585464	0.11489028199318523	1.6208699123013794	0.1075895972385256	0.13261783521795936	1.6481530172344776	0.18984597188848124	0.14729772985341458	1.6504809226244468	-0.01935152970894298	0.22607289730808833	1.4866570594719024	-0.023633895622292275	0.18365884345153852	1.7634067227537238	0.007547854420973461	0.1624358468619009	1.9995179502222462	0.07450066835922634	0.15255514819444566	2.055053502236613	0.043420019562341344	0.14835436914955388	2.0936779176352474	-0.016288068613562398	0.17052682088736512	2.0895398806303214	0.3035971835705582	0.24671811555945988	1.4820039046800804	0.31565426119702295	0.21467874775852436	1.760988736411982	0.2750612649969551	0.16808158381033506	1.9993791478559442	0.2087976008232192	0.13946009982233484	2.047177353298833	0.23661736805599634	0.13637398169233866	2.077913718983541	0.28451252322741216	0.16963155555378834	2.078277558619199
379	3.158333333333333	0.03415988129790223	0.19145650547812246	0.9187359656331615	-0.0005651286162986058	0.21746015382283593	0.48473645708417723	-0.03740183568264781	0.2585476246137757	0.08626064726819069	-0.052577418002451595	0.05211453138596795	0.015015424588493158	-0.08757408004562983	0.09952481508345506	0.020091636323725633	-0.03632613610806182	0.29770126430922034	0.02014504901052239	0.25817139960368357	0.19192307979154583	0.9166644443365148	0.2746099286099934	0.21206330911254098	0.48364988924678	0.3011434204153124	0.2764905531631843	0.07969803924485103	0.3254645820408628	0.06352361947779961	0.012129268877387389	0.3475090082030675	0.11338797264157063	0.01674412189926189	0.2961584231150471	0.3186200966332098	0.015660967006463973	0.14801689961220713	0.11538675094439647	1.620809952873296	0.10790648959111782	0.13294978183392767	1.6482512828873226	0.1901975173198396	0.14776009841519402	1.6505408773461363	-0.019264533858884738	0.2261636116542387	1.4865646346927914	-0.022788237462886714	0.18376421432241932	1.7630877063267232	0.00889893810166035	0.1621374661970567	1.999745304762698	0.07648637410515105	0.1521052172359402	2.055075336101176	0.04515962060974948	0.1480765636133042	2.093739419227336	-0.014242308694397552	0.17061878948153938	2.0900218568124043	0.30355432507792157	0.24655172611016185	1.4819232328795255	0.31484860723407926	0.2147450401970129	1.7608012472641312	0.2728943175877782	0.16783409869597476	1.9990116460048173	0.20596913162256997	0.1390230622597229	2.046695236304014	0.23408439689363714	0.1354532544665732	2.077195943325004	0.2822805790066936	0.16904472729297032	2.077544607154176
380	3.1666666666666665	0.03414606312058364	0.1915512450339719	0.9186308800518674	-0.0004705463284475737	0.21740283654556816	0.48476095964966487	-0.03737486778684243	0.2584051603631191	0.086182707274125	-0.05288479691126429	0.05196785275301206	0.015000157561090263	-0.08778861672338244	0.09947310423667007	0.019999823763589112	-0.036238320030606	0.29757182245563507	0.02008514796490396	0.25809945917210064	0.1920045995843895	0.9166834923374715	0.27458509099725587	0.21214463076832948	0.48381603550140523	0.3010631921500244	0.27644224512430465	0.07971800355867	0.32569490652943317	0.06409554686761204	0.012145178572105914	0.3477207896159828	0.11389440122434756	0.016897235619798494	0.296005510693148	0.3185693789282691	0.015600776848331284	0.14804653958736988	0.11584704978687344	1.620765664850462	0.10819256097070866	0.13323677049443336	1.6483494015977342	0.19050499558452094	0.1482125248774373	1.6506176338047387	-0.019163903107716245	0.22627348586068669	1.4864423594583516	-0.02195528514229441	0.18384037169408993	1.762806384821231	0.010306836046839138	0.16187545585216576	1.9999117202572914	0.07827728128233867	0.15165721326017548	2.055038881714661	0.046853789525438526	0.14779056648007607	2.0937241929298778	-0.012104535462059444	0.17066502256195165	2.0904090384314045	0.3034603634555361	0.24644407792444167	1.4818515779973063	0.31404668116253975	0.21474923807532578	1.760596412428172	0.2706904039201172	0.16754211193110197	1.998623297879739	0.20312170430942703	0.1385125588391086	2.04616043649184	0.2314176126934921	0.13448628104648142	2.0764040912744117	0.27999002322182076	0.1683706021192358	2.0767434060953573
381	3.175	0.034114275015008466	0.19163108420508176	0.918432879872188	-0.00038939100445315047	0.21734618058483304	0.484807419900142	-0.037344417568070026	0.2582709871779045	0.0860920700491155	-0.053106385003180996	0.05179158889852164	0.014995776776775733	-0.08799114979972317	0.09940495102565036	0.01991419953321142	-0.0361872979262429	0.29743091413083905	0.01999250223641962	0.257994216740049	0.1920998258423194	0.9166316671352603	0.27454557699728316	0.2122705519653872	0.48395127612289524	0.30099171361305765	0.27644069646700153	0.07971853436032036	0.3258148289932479	0.0647864274871736	0.012203021865386892	0.34784547763342183	0.11450216108511926	0.0170373368565723	0.2959055550209688	0.31858555361192004	0.015576716117256481	0.14802607968416379	0.11626214358862991	1.620719292459781	0.10845971494047262	0.1334739327949427	1.6484417810425158	0.19077163571550868	0.14864229561574338	1.6506903465875151	-0.01907300538590838	0.22641610295530687	1.4862933385022012	-0.02111655329297882	0.18386399457542318	1.7625888650959207	0.011791525328141195	0.16164312200235428	2.0000235970057356	0.07990373244144125	0.1512076978486318	2.0549490440335254	0.04853701101836928	0.14748399668143844	2.093646542237442	-0.009831413198897914	0.1706704082572434	2.0907159824513473	0.30330957368820133	0.2464067580416185	1.4817862456307072	0.31325559747156717	0.2146815872625225	1.7603682346861376	0.26847696767706636	0.167198498494581	1.998220990667716	0.20027823717323628	0.13794583713624547	2.0455635783265476	0.22861921277324995	0.1335171813969581	2.0755461294885884	0.2776582225635347	0.16762808118517744	2.0758930716260617
382	3.183333333333333	0.03406429405587111	0.19169428164391805	0.9181319343101496	-0.00032847693716896013	0.2172879881140031	0.4848547618156394	-0.03731612585373873	0.2581580305232999	0.08597461057015975	-0.05322502900935011	0.051599394565941176	0.015000873949894399	-0.08815248729177022	0.09931775692677035	0.01983407984294358	-0.03618139024321827	0.2972776467317821	0.01985803733134567	0.257855030645035	0.19222012757555704	0.9164957796324237	0.27449386871955556	0.21242477230378246	0.4840276198886421	0.300929227329891	0.276493145351161	0.07970450754005666	0.325828286662534	0.06552687515143611	0.012297128456614846	0.34787206473578247	0.1151481072899985	0.017147969955153105	0.29586296589921485	0.31865247247422207	0.015593460732975954	0.1479770019798577	0.1166395956777091	1.6206568012058649	0.10872185079010123	0.13367300659936154	1.6485262131321299	0.1910098526401269	0.14904441578622793	1.650737388175667	-0.019010291944343533	0.22660224354884448	1.4861246516589806	-0.02025086037894441	0.1838165735841372	1.7624478406029438	0.013362927145683911	0.16142076741117123	2.0000924484684766	0.08140302541035288	0.15074062211654524	2.0548148186651343	0.05023926957733502	0.14714384395971186	2.0935225825176818	-0.007393411458878667	0.1706499958151095	2.0909659980903963	0.3031031979276066	0.24644248664987214	1.4817184286847667	0.3124824861550732	0.21453991480271034	1.760117547842714	0.2662840450087863	0.16680178167914186	1.9978113954283752	0.19746488577618213	0.1373511723426812	2.0449005005779064	0.22570097905009073	0.13259112876953827	2.0746409979681535	0.27529913408679807	0.16684699564031266	2.0750269006033517
383	3.191666666666667	0.033997658399723775	0.19174953859058702	0.9177485270053426	-0.00028658372498644575	0.21722812343255993	0.48488861876756506	-0.03729160494294593	0.25807276739041024	0.08583099996962698	-0.05325279337994878	0.05140483574088866	0.015005261124753649	-0.0882542916415249	0.0992102626856104	0.01975736522261809	-0.036215815339162	0.2971222038611168	0.01968835476970233	0.25768665509459165	0.19237705573256533	0.9162890881374524	0.27443188162328686	0.21259674624243927	0.4840407519712898	0.3008760292888976	0.2765988926377428	0.07967863537388307	0.3257480148265138	0.06624709778996457	0.012417223915805398	0.34780518530293847	0.11576417018878	0.017217734388024483	0.2958756242335178	0.3187601350962944	0.015646083489923718	0.14791825890790633	0.11699423260594768	1.6205724474380905	0.10898361131021814	0.1338582867480805	1.648603272234303	0.19122744170738132	0.14941423086623992	1.6507417289520194	-0.018979029198159292	0.22683091123516005	1.4859455691504129	-0.019341593425659522	0.18369575312342215	1.7623740329355548	0.015018130871120663	0.1611883022217561	2.000123602203346	0.08280352864041401	0.1502354617682465	2.05463886088418	0.051978428285273603	0.14676377738489227	2.0933586863339975	-0.004784636139992094	0.1706206041026939	2.0911831299564967	0.30284912004436204	0.2465414737790284	1.4816403116070416	0.31172880512923384	0.21432905614389292	1.7598563847264677	0.2641347223944746	0.16635907370929587	1.9973988866014294	0.19470797475042367	0.13676545187204148	2.0441735722854792	0.22268943770090416	0.13174784125485373	2.0737118302107356	0.2729210393881404	0.16605613104520656	2.0741837057096197
